<svg width="300" height="300" viewBox="0 0 300 300" fill="none" xmlns="http://www.w3.org/2000/svg">
<rect x="45" y="10" width="210" height="17" fill="black"/>
<path d="M28 27H273V45H28V27Z" fill="black"/>
<path d="M28 45H45V255H28V45Z" fill="black"/>
<path d="M10 45H28V255H10V45Z" fill="black"/>
<path d="M133 97H150V255H133V97Z" fill="black"/>
<path d="M150 97H168V255H150V97Z" fill="black"/>
<path d="M203 71H220V229H203V71Z" fill="black"/>
<path d="M80 71H98V229H80V71Z" fill="black"/>
<path d="M220 89H238V211H220V89Z" fill="black"/>
<path d="M63 89H80V211H63V89Z" fill="black"/>
<path d="M255 45H273V97H255V45Z" fill="black"/>
<path d="M255 202H273V255H255V202Z" fill="black"/>
<path d="M273 45H290V80H273V45Z" fill="black"/>
<path d="M273 220H290V255H273V220Z" fill="black"/>
<path d="M28 255H273V272H28V255Z" fill="black"/>
<path d="M98 224H203V242H98V224Z" fill="black"/>
<path d="M98 207H203V224H98V207Z" fill="black"/>
<path d="M45 272H255V290H45V272Z" fill="black"/>
</svg>
